<mxfile host="app.diagrams.net" modified="2024-06-08T15:01:48.768Z" agent="Mozilla/5.0 (Windows NT 10.0; Win64; x64) AppleWebKit/537.36 (KHTML, like Gecko) Chrome/125.0.0.0 Safari/537.36" version="24.5.2" etag="pGi8_MzD9LCu1B9NMvp5" type="github">
  <diagram name="PÃ¡gina-1" id="J0Vo9BX63p2YT4FNE6D2">
    <mxGraphModel>
      <root>
        <mxCell id="0" />
        <mxCell id="1" parent="0" />
      </root>
    </mxGraphModel>
  </diagram>
</mxfile>
